PathFileType	4	(X/Y/Z)	c:/Users/goper/Files/vsCode/490R/osim_files/A02/A02_PWS_02.trc
DataRate	CameraRate	NumFrames	NumMarkers	Units                	OrigDataRate	OrigDataStartFrame	OrigNumFrames
250.00	250.00	7	36	mm	250.0	1924	3077
                Frame#	Time	Mobility_markerset:LPSIS			Mobility_markerset:LASIS			Mobility_markerset:LTH1			Mobility_markerset:LTH2			Mobility_markerset:LTH3			Mobility_markerset:LTH4			Mobility_markerset:LLFE			Mobility_markerset:LMFE			Mobility_markerset:LSH1			Mobility_markerset:LSH2			Mobility_markerset:LSH3			Mobility_markerset:LSH4			Mobility_markerset:LLMAL			Mobility_markerset:LMMAL			Mobility_markerset:LCAL			Mobility_markerset:LMTP5			Mobility_markerset:LTOE			Mobility_markerset:LMTP1			Mobility_markerset:RPSIS			Mobility_markerset:RASIS			Mobility_markerset:RTH1			Mobility_markerset:RTH2			Mobility_markerset:RTH3			Mobility_markerset:RTH4			Mobility_markerset:RLFE			Mobility_markerset:RMFE			Mobility_markerset:RSH1			Mobility_markerset:RSH2			Mobility_markerset:RSH3			Mobility_markerset:RSH4			Mobility_markerset:RLMAL			Mobility_markerset:RMMAL			Mobility_markerset:RCAL			Mobility_markerset:RMTP1			Mobility_markerset:RTOE			Mobility_markerset:RMTP5		
		X1	Y1	Z1	X2	Y2	Z2	X3	Y3	Z3	X4	Y4	Z4	X5	Y5	Z5	X6	Y6	Z6	X7	Y7	Z7	X8	Y8	Z8	X9	Y9	Z9	X10	Y10	Z10	X11	Y11	Z11	X12	Y12	Z12	X13	Y13	Z13	X14	Y14	Z14	X15	Y15	Z15	X16	Y16	Z16	X17	Y17	Z17	X18	Y18	Z18	X19	Y19	Z19	X20	Y20	Z20	X21	Y21	Z21	X22	Y22	Z22	X23	Y23	Z23	X24	Y24	Z24	X25	Y25	Z25	X26	Y26	Z26	X27	Y27	Z27	X28	Y28	Z28	X29	Y29	Z29	X30	Y30	Z30	X31	Y31	Z31	X32	Y32	Z32	X33	Y33	Z33	X34	Y34	Z34	X35	Y35	Z35	X36	Y36	Z36

1924	7.69200	-1891.88062	940.93079	324.15536	-2029.60962	900.22406	412.92136	-1897.75171	661.21454	432.99878	0.00000	0.00000	0.00000	-1954.08386	657.86328	457.92490	0.00000	0.00000	0.00000	0.00000	0.00000	0.00000	-1878.64355	372.62701	308.13104	-1812.96826	434.28143	396.27972	-1779.15991	405.40897	399.19855	-1847.65649	389.37445	419.87000	-1808.80029	365.83218	420.53244	-1624.92285	207.27232	371.91846	-1652.05212	191.70013	293.43234	-1600.42627	260.32083	319.92038	-1585.07678	95.38688	378.71497	-1631.63245	53.25473	323.07721	-1611.00977	82.47742	269.56931	-1902.43188	956.33044	223.92868	-2064.46509	931.16705	169.26279	-2069.73315	607.72882	144.55481	-2086.32178	566.69226	145.54442	-2128.61182	624.56250	144.77168	-2136.01489	581.74774	143.69337	-2129.34619	461.72116	136.83188	-2151.18042	470.64938	269.38751	-2158.75684	278.85278	159.99217	-2173.88843	235.55516	170.83873	-2216.43701	292.52838	155.46573	-2224.12061	246.48082	163.36662	-2210.81128	84.68803	169.94215	-2224.19385	94.31371	259.50003	-2164.40723	64.53918	218.42555	-2350.80908	75.20923	246.39326	-2369.35693	89.28574	210.85681	-2340.90796	68.65942	155.19785
1925	7.69600	-1896.91980	941.91650	323.98315	-2034.66235	901.44690	412.52026	-1904.96765	661.16736	433.16977	0.00000	0.00000	0.00000	-1961.40942	658.36945	458.03607	0.00000	0.00000	0.00000	0.00000	0.00000	0.00000	-1889.06506	372.97055	308.44470	-1823.46021	434.82693	396.29654	-1789.47900	406.37756	399.72238	-1857.76025	390.01633	420.41049	-1818.58948	366.77084	421.39905	-1633.59119	209.49030	372.94376	-1660.06885	194.06604	294.18149	-1609.97583	263.30621	321.52731	-1591.72351	97.89058	378.21527	-1637.76904	55.41077	322.58878	-1617.83582	85.45348	269.31030	-1907.35669	957.45050	223.58998	0.00000	0.00000	0.00000	-2073.52686	608.75049	144.54472	-2089.73511	567.60626	145.54468	-2132.54028	625.12354	144.70985	-2139.60889	582.34125	143.64438	-2132.12744	462.29388	136.80400	-2154.11353	471.11246	268.90469	-2160.35742	279.21457	160.07692	-2175.26245	235.91911	170.88538	-2218.11475	292.55902	155.40736	-2225.50415	246.47752	163.27760	-2211.23022	84.75381	169.95219	-2224.48169	94.20384	259.40265	-2164.69385	64.74776	218.49283	-2351.11401	74.55155	246.29924	-2369.82275	88.46799	210.70297	-2341.13184	68.09551	155.09090
1926	7.70000	-1902.06238	942.81250	323.79282	-2039.73792	902.59912	412.23105	-1912.36963	660.97290	433.48300	0.00000	0.00000	0.00000	-1968.68469	659.00427	458.15768	0.00000	0.00000	0.00000	0.00000	0.00000	0.00000	0.00000	0.00000	0.00000	-1833.96497	435.70682	397.10718	-1799.86462	407.33762	400.25571	-1868.36731	390.93579	421.24408	-1828.41235	367.79529	422.30661	-1642.44507	211.45874	373.94519	-1668.40369	196.58711	294.78296	-1619.28186	265.98154	323.54379	-1599.44800	99.76476	377.28751	-1645.66614	58.11369	321.39917	-1625.14380	88.80064	268.60736	-1912.43787	958.58789	223.40727	-2074.85449	933.03241	168.74513	-2077.20972	609.72510	144.52348	-2093.28809	568.47266	145.55327	-2136.38818	625.74847	144.67252	-2143.17310	582.84314	143.58987	-2135.02197	462.98132	136.88988	-2157.01196	471.54538	268.94565	-2162.03979	279.58694	160.13260	-2176.50464	236.26790	170.87039	-2219.78223	292.59396	155.35143	-2226.85425	246.40842	163.25116	-2211.56909	84.79004	169.99612	-2224.89673	94.13938	259.33609	-2164.92188	64.98153	218.52303	-2351.53809	73.90682	246.18857	-2370.22681	87.75931	210.58023	-2341.38110	67.46636	154.96405
1927	7.70400	-1907.11926	943.81055	323.62689	-2044.76917	903.74005	412.11588	-1919.36011	660.95404	433.42108	0.00000	0.00000	0.00000	-1976.06982	659.60083	458.32758	0.00000	0.00000	0.00000	-1945.06421	444.01929	419.54810	0.00000	0.00000	0.00000	-1844.51624	436.32104	397.65567	-1810.30139	408.23407	400.93283	-1878.41089	391.37796	421.71481	-1839.53650	368.33875	422.55389	-1651.60779	213.02672	374.92322	-1676.75610	199.59557	295.45474	-1627.89429	268.80334	326.05920	-1607.78381	101.41924	376.45685	-1653.61511	60.59882	319.68143	-1632.88306	92.63500	267.40088	-1917.62744	959.66833	223.19287	0.00000	0.00000	0.00000	-2081.00854	610.68927	144.55130	-2096.73340	569.31787	145.55078	-2140.15625	626.26837	144.61725	-2146.64966	583.36273	143.53568	-2137.47656	463.52640	136.66154	-2159.99219	472.02246	268.96542	-2163.96753	279.92249	160.39920	-2178.55054	236.51683	170.66382	-2221.56030	292.67487	155.34978	-2228.42407	246.49117	163.11314	-2211.92896	84.86513	170.02960	-2225.41162	94.10278	259.25003	-2165.21094	65.22822	218.52779	-2351.88086	73.24963	246.12090	-2370.59473	87.03219	210.50482	-2341.63574	66.80617	154.89783
1928	7.70800	-1912.08154	944.84515	323.52371	-2049.85156	904.92395	411.78271	-1926.77332	660.92657	433.56155	0.00000	0.00000	0.00000	-1983.25403	660.35114	458.48502	0.00000	0.00000	0.00000	0.00000	0.00000	0.00000	0.00000	0.00000	0.00000	-1855.23254	437.06781	398.25964	-1820.88159	409.11566	401.65948	-1888.87708	391.90753	422.33264	-1849.95215	369.05548	423.27493	-1660.75049	214.52672	375.87695	-1685.00024	202.97311	295.90607	-1636.27405	271.32535	328.56094	-1617.06787	102.97089	375.63315	-1662.26221	63.17167	317.46277	-1641.02490	96.79391	265.92282	-1922.74036	960.69812	223.00368	0.00000	0.00000	0.00000	-2085.19312	611.41583	144.56406	-2100.05493	570.17273	145.55804	-2143.96191	626.81683	144.54677	-2150.21167	583.84778	143.50511	-2140.39575	464.13272	136.90935	-2162.84863	472.48184	268.94943	-2165.66187	280.26099	160.43552	-2179.11792	236.93367	170.89841	-2223.05615	292.66623	155.32646	-2229.64038	246.47311	163.17599	-2211.55225	84.47958	171.24063	-2225.89038	94.11890	259.19009	-2165.46533	65.43752	218.56668	-2352.19775	72.60813	246.03001	-2370.92285	86.32378	210.48325	-2341.88892	66.25702	154.85938
1929	7.71200	-1917.04578	945.77991	323.16772	-2054.70410	906.12927	411.51627	-1933.91431	660.99603	433.75284	0.00000	0.00000	0.00000	-1990.60303	661.08362	458.68298	0.00000	0.00000	0.00000	0.00000	0.00000	0.00000	0.00000	0.00000	0.00000	-1865.88831	437.70197	398.96841	-1831.50317	410.00278	402.48505	-1899.46204	392.40253	422.81476	-1860.28857	369.78345	423.99661	-1670.33667	216.02209	376.72018	-1693.17151	206.47673	296.20837	-1644.63232	273.76254	331.12347	-1627.44458	104.21709	374.74826	-1671.77417	65.77927	315.20847	-1649.71997	100.97708	264.44434	-1928.11035	961.66663	223.01508	0.00000	0.00000	0.00000	-2088.54077	612.47650	144.54092	-2103.43164	570.98187	145.56335	-2147.75000	627.33502	144.48965	-2153.69165	584.40704	143.46539	-2143.07446	464.59909	136.80737	-2165.63037	472.88382	268.88431	-2167.14648	280.69922	160.44370	-2181.10718	237.11969	170.63150	-2225.12598	292.64651	155.35147	-2230.97437	246.45593	163.15833	-2211.76807	84.50690	171.38148	-2226.11133	94.04468	259.11029	-2165.76025	65.57864	218.54434	-2352.44824	72.02631	245.95747	-2371.29272	85.65538	210.40181	-2342.16479	65.75631	154.82928
1930	7.71600	-1921.95007	946.72839	322.91473	-2059.62476	907.31830	411.23236	-1941.32520	661.00793	434.00513	0.00000	0.00000	0.00000	-1997.80823	661.91589	458.83365	0.00000	0.00000	0.00000	-1975.96497	445.11115	420.82977	0.00000	0.00000	0.00000	-1876.66736	438.39322	399.65408	-1842.05322	410.80682	403.37827	-1910.42822	393.15192	423.61380	-1870.90735	370.47958	424.69308	-1680.01648	217.51178	377.37125	-1701.55664	210.09357	296.51611	-1653.02722	275.93091	333.77942	-1638.23621	105.17371	373.72983	-1683.00769	70.27202	311.61423	-1659.05310	104.90475	262.94247	-1933.16614	962.69910	222.81201	0.00000	0.00000	0.00000	-2092.13086	613.34186	144.54373	-2106.79272	571.76056	145.49437	-2151.41138	627.81470	144.44141	-2157.09888	584.88281	143.41798	-2145.73438	465.16183	136.77220	-2168.39648	473.32175	268.90588	-2168.69287	281.15973	160.51634	-2181.65039	237.54709	170.87888	-2226.57764	292.72278	155.34752	-2232.26392	246.48152	163.11461	-2212.72583	85.07101	170.13344	-2226.36768	93.97195	259.02701	-2165.80298	65.93214	218.57520	-2352.71240	71.52149	245.87213	-2371.62183	85.04584	210.32047	-2342.37183	65.28339	154.77216
